PathFileType	4	(X/Y/Z)	D:\TRACE\spot_10-12-23\spot_body_motion_2_1-platform.trc
DataRate	CameraRate	NumFrames	NumMarkers	Units	OrigDataRate	OrigDataStartFrame	OrigNumFrames
100.00	100.00	      24	5	mm	100.00	3501	      7000
Frame#	Time	Left_Front			Right_Front			Left_Aft			Right_Aft			Post			
		X1	Y1	Z1	X2	Y2	Z2	X3	Y3	Z3	X4	Y4	Z4	X5	Y5	Z5	

3501	35.000	-737.66833	33.01649	-634.59253	835.12848	37.71629	-627.71686	-654.37512	-13.07817	502.43488	762.46021	-11.67751	588.02899	44.85870	782.83209	-923.13129	
3502	35.010	-736.84802	34.42184	-634.33746	835.82635	39.27304	-627.33191	-653.84534	-13.87010	502.54721	763.61206	-12.78574	588.52325	45.61136	784.82306	-921.11389	
3503	35.020	-736.10980	35.90443	-633.92548	836.72876	40.61804	-626.91675	-652.98834	-14.97724	502.91498	764.34601	-13.74300	588.90063	46.00553	786.91577	-919.13483	
3504	35.030	-735.43890	37.04562	-633.25964	837.20276	42.00664	-626.52710	-652.44446	-15.92651	503.03906	763.88837	-15.89568	589.28815	46.88651	788.90210	-917.02338	
3505	35.040	-734.89227	38.92513	-633.09894	837.66101	43.58516	-626.26227	-651.62048	-17.16783	503.42468	764.76483	-16.98932	589.52173	47.62714	790.82678	-914.95184	
3506	35.050	-734.33490	40.12982	-632.65381	838.29260	44.65633	-625.80573	-651.16156	-17.83710	503.69510	766.16034	-17.29849	589.67102	48.11992	792.94598	-913.18237	
3507	35.060	-733.93146	41.48501	-632.22357	838.70453	46.18130	-625.52704	-650.41492	-18.92004	504.02985	766.68042	-18.46577	589.85699	48.89470	794.70697	-911.06763	
3508	35.070	-733.36304	43.00700	-631.85211	839.50177	47.52143	-625.04376	-649.95105	-19.85206	504.05969	767.07910	-19.46368	590.25653	49.38631	796.67084	-909.08679	
3509	35.080	-732.81018	44.13972	-631.33917	839.80975	48.61070	-624.63342	-649.59021	-20.84180	504.41168	767.41742	-21.08294	590.61206	49.55080	798.30048	-907.45953	
3510	35.090	-732.28662	45.24907	-631.00525	840.31812	49.85295	-624.34418	-649.12421	-21.62558	504.71124	767.80261	-22.06911	591.03796	50.13614	800.19177	-905.47327	
3511	35.100	-732.05072	46.66454	-630.71747	840.62262	51.35505	-623.89612	-648.66815	-22.45517	505.22012	768.36249	-22.89525	591.15137	50.56578	801.91602	-903.83868	
3512	35.110	-731.63843	47.84564	-630.30206	841.01807	52.27451	-623.46619	-648.23999	-23.84386	505.32672	768.72296	-23.77116	591.35187	50.95316	803.62408	-901.99670	
3513	35.120	-731.17139	49.07084	-629.95203	841.33417	53.56094	-623.19635	-647.96790	-24.41856	505.66968	769.19922	-24.85723	591.62305	51.22018	805.46985	-900.35883	
3514	35.130	-731.18237	50.08717	-629.43311	841.53369	54.87998	-622.95728	-647.66132	-25.15313	505.93524	769.46368	-25.64346	591.69006	51.43627	807.08588	-898.57623	
3515	35.140	-730.87512	51.44187	-629.34119	842.03955	55.82915	-622.52515	-647.48248	-25.85911	506.26071	769.80457	-26.60056	591.99530	51.88028	808.47406	-896.93506	
3516	35.150	-730.71747	52.49473	-628.98279	841.99634	56.88734	-622.30530	-647.40814	-26.57332	506.13733	769.71442	-27.58934	592.27313	52.06406	810.05206	-895.31256	
3517	35.160	-730.55048	53.49866	-628.66638	841.98187	57.99152	-622.03094	-647.19843	-27.49674	506.36240	769.94647	-28.49225	592.47577	52.03670	811.59686	-893.74377	
3518	35.170	-730.34601	54.33582	-628.21466	842.31158	59.05893	-621.58813	-647.13293	-28.06589	506.53201	770.27881	-29.35273	592.69867	52.22844	813.09326	-892.19141	
3519	35.180	-730.53210	55.70448	-628.01001	842.22717	59.93174	-621.21222	-647.13312	-28.68855	506.66769	770.32312	-30.07464	592.77502	52.16261	814.55573	-890.81384	
3520	35.190	-730.39825	56.61725	-627.72906	842.24969	60.81300	-620.97894	-647.12689	-29.53461	506.89410	770.12579	-30.94643	593.07208	52.18852	815.92615	-889.25751	
3521	35.200	-730.49304	57.54438	-627.33801	842.20520	62.00407	-620.66241	-647.23096	-30.19011	506.98740	770.18799	-31.80228	593.13531	51.98531	817.02142	-888.01898	
3522	35.210	-730.47858	58.28873	-626.99762	842.34863	62.78341	-620.37756	-647.11755	-30.76566	507.04657	770.42407	-32.61356	593.30969	52.13243	818.48419	-886.51233	
3523	35.220	-730.33429	59.28957	-626.80139	842.10358	63.66978	-620.11633	-646.93927	-31.45017	507.29672	770.34088	-33.10562	593.49182	52.15915	819.72144	-885.21509	
3524	35.230	-730.38409	60.24194	-626.61481	842.15588	64.42133	-619.71545	-647.06171	-32.16345	507.63943	770.14337	-33.85426	593.78522	51.94220	820.86829	-884.13727	
